<svg version="1" xmlns="http://www.w3.org/2000/svg" width="861.333" height="861.333" viewBox="0 0 646.000000 646.000000"><path d="M298.5 3.6c-49 4.8-84 14.4-121.9 33.6C92.8 79.3 32.7 154.4 9.6 245.5c-2.7 10.7-5.7 27.1-7.8 42.5-1.7 12.5-1.7 57.5 0 70 5.8 42.4 15.4 74.7 32.2 108.1 45.6 90.8 131.2 154.7 230 171.8 22.7 3.9 30.4 4.6 56 4.6s33.3-.7 56-4.6c70.5-12.2 137.3-49.8 183.9-103.4 44.8-51.5 69.9-108.4 78.3-177.5 1.7-13.6 1.7-54.4 0-68-7.5-61.2-29.1-115-64.6-161C520.9 59.8 447.2 17.6 359.5 5.5c-10.4-1.5-52.3-2.8-61-1.9zM131.7 200.5c7.8 22.9 29.3 86.4 51.3 151 5.6 16.5 10.5 30.4 11 30.8.4.4 16.2-45.7 35.2-102.5l34.5-103.3 31.7-.3 31.6-.2-.2 140.7-.3 140.8-25.2.3-25.3.2-.1-84.2c0-61.8-.3-83.9-1.1-82.7-.6.9-13.6 38.7-28.7 84l-27.6 82.4h-49l-10-29.5c-5.5-16.2-18.3-54.1-28.5-84.2-10.2-30-18.8-54.4-19.2-54.1-.5.2-.8 38.2-.8 84.4V458H61V176l31.3.2 31.2.3 8.2 24zm359.8-23.4c38.6 4.6 66.6 24.1 84.2 58.8 16.7 32.8 21.6 78.5 13.2 122-5.8 29.9-17.7 53.1-36.3 70.8-18.2 17.3-38.6 25.9-67.2 28.3-6.5.5-36.1 1-65.6 1H366V176h58.3c35.1 0 61.8.4 67.2 1.1z"/><path d="M418.2 316.7l.3 91.8h33c36.5 0 39.3-.4 52.5-6.8 7.7-3.8 18-13.7 22.9-22 8.7-14.8 13.1-36 13.1-63.1 0-49.9-14.7-78.6-45.5-88.7-6.7-2.2-8.7-2.3-41.8-2.7l-34.7-.3.2 91.8z"/></svg>